<svg width="255" height="50" viewBox="0 0 255 50" fill="none" xmlns="http://www.w3.org/2000/svg">
<path d="M8.73832 24.3455H31.3785V26.2654H8.73832V24.3455ZM18.6682 8.59375H31.3785V10.4264H18.6682V8.59375ZM8.73832 39.5301H21.1467V41.3625H8.73832V39.5301Z" fill="#6B3FA0"/>
<path d="M91.7277 8.59375L75.9427 41.4062L67.6509 24.6946L59.581 41.4062L43.2634 8.59375H45.0373L59.581 37.2174L66.6754 22.7747L59.581 8.59375H61.4431L67.6064 20.8548L73.5925 8.59375H75.4105L68.5819 22.7311L75.9427 37.2174L89.9542 8.59375H91.7277Z" fill="#5B5CA2"/>
<path d="M125.499 8.59375V10.4264H107.009V24.3455H123.016V26.2654L107.009 26.2218V39.5301H125.499V41.3625H105.147V8.59375H125.499Z" fill="#4C79A4"/>
<path d="M140.923 41.3625V8.63739L166.774 36.3447V8.63739H168.724V41.3625L142.785 13.3062V41.3625H140.923Z" fill="#3C95A5"/>
<path d="M192.439 41.3625V10.4264H179.846V8.59375H206.894V10.4264H194.301V41.3625H192.439Z" fill="#2DB2A7"/>
<path d="M217.973 8.75763L242.493 39.3899H218.55V41.2043H246.262L221.742 10.5722H245.552V8.75763H217.973Z" fill="#1DCFA9"/>
</svg>
